<svg xmlns="http://www.w3.org/2000/svg" width="192" height="192" viewBox="0 0 192 192" fill="none">
  <defs>
    <linearGradient id="grad" x1="0%" y1="0%" x2="100%" y2="100%">
      <stop offset="0%" style="stop-color:#4f9463;stop-opacity:1" />
      <stop offset="100%" style="stop-color:#7c3a8c;stop-opacity:1" />
    </linearGradient>
  </defs>
  <rect width="192" height="192" rx="36" fill="url(#grad)"/>
  <path d="M144 60h-15l-9-12h-48l-9 12H60c-6.6 0-12 5.4-12 12v72c0 6.6 5.4 12 12 12h96c6.6 0 12-5.4 12-12V72c0-6.6-5.4-12-12-12zm-48 78c-16.56 0-30-13.44-30-30s13.44-30 30-30 30 13.44 30 30-13.44 30-30 30zm0-48c-9.96 0-18 8.04-18 18s8.04 18 18 18 18-8.04 18-18-8.04-18-18-18z" fill="#ffffff"/>
</svg>